<mxfile host="65bd71144e">
    <diagram name="Страница 1" id="mi0uyCCv2G_nXRVlm2lk">
        <mxGraphModel dx="1119" dy="685" grid="1" gridSize="10" guides="1" tooltips="1" connect="1" arrows="1" fold="1" page="1" pageScale="1" pageWidth="827" pageHeight="1169" math="0" shadow="0">
            <root>
                <mxCell id="0"/>
                <mxCell id="1" parent="0"/>
                <mxCell id="KhKdxgmT8Jcne5T-ARf2-4" value="" style="rounded=1;whiteSpace=wrap;html=1;fillColor=none;dashed=1;dashPattern=8 8;" parent="1" vertex="1">
                    <mxGeometry x="500" y="860" width="510" height="130" as="geometry"/>
                </mxCell>
                <mxCell id="Z_-6yaJLIJlQ9sG_ksaD-55" value="" style="rounded=0;whiteSpace=wrap;html=1;fillColor=none;dashed=1;dashPattern=12 12;" parent="1" vertex="1">
                    <mxGeometry x="170" y="110" width="940" height="930" as="geometry"/>
                </mxCell>
                <mxCell id="Z_-6yaJLIJlQ9sG_ksaD-51" value="" style="rounded=1;whiteSpace=wrap;html=1;fillColor=none;dashed=1;dashPattern=8 8;" parent="1" vertex="1">
                    <mxGeometry x="500" y="380" width="510" height="200" as="geometry"/>
                </mxCell>
                <mxCell id="Z_-6yaJLIJlQ9sG_ksaD-50" value="" style="rounded=1;whiteSpace=wrap;html=1;fillColor=none;dashed=1;dashPattern=8 8;" parent="1" vertex="1">
                    <mxGeometry x="500" y="150" width="510" height="200" as="geometry"/>
                </mxCell>
                <mxCell id="Z_-6yaJLIJlQ9sG_ksaD-52" value="" style="rounded=1;whiteSpace=wrap;html=1;fillColor=none;dashed=1;dashPattern=8 8;" parent="1" vertex="1">
                    <mxGeometry x="500" y="617.5" width="510" height="200" as="geometry"/>
                </mxCell>
                <mxCell id="Z_-6yaJLIJlQ9sG_ksaD-57" value="" style="edgeStyle=orthogonalEdgeStyle;rounded=0;orthogonalLoop=1;jettySize=auto;html=1;" parent="1" source="Z_-6yaJLIJlQ9sG_ksaD-1" target="Z_-6yaJLIJlQ9sG_ksaD-55" edge="1">
                    <mxGeometry relative="1" as="geometry"/>
                </mxCell>
                <mxCell id="Z_-6yaJLIJlQ9sG_ksaD-79" value="HTTP-запросы" style="edgeLabel;html=1;align=center;verticalAlign=middle;resizable=0;points=[];" parent="Z_-6yaJLIJlQ9sG_ksaD-57" vertex="1" connectable="0">
                    <mxGeometry x="-0.08" y="1" relative="1" as="geometry">
                        <mxPoint y="-9" as="offset"/>
                    </mxGeometry>
                </mxCell>
                <mxCell id="Z_-6yaJLIJlQ9sG_ksaD-1" value="Клиенты" style="shape=actor;whiteSpace=wrap;html=1;labelPosition=center;verticalLabelPosition=bottom;align=center;verticalAlign=top;" parent="1" vertex="1">
                    <mxGeometry x="30" y="545" width="40" height="60" as="geometry"/>
                </mxCell>
                <mxCell id="Z_-6yaJLIJlQ9sG_ksaD-6" value="" style="swimlane;startSize=0;" parent="1" vertex="1">
                    <mxGeometry x="235" y="420" width="130" height="120" as="geometry"/>
                </mxCell>
                <mxCell id="Z_-6yaJLIJlQ9sG_ksaD-9" value="User" style="swimlane;fontStyle=0;childLayout=stackLayout;horizontal=1;startSize=30;horizontalStack=0;resizeParent=1;resizeParentMax=0;resizeLast=0;collapsible=1;marginBottom=0;whiteSpace=wrap;html=1;absoluteArcSize=0;swimlaneLine=1;rounded=0;allowArrows=1;connectable=1;container=1;autosize=0;comic=0;enumerate=0;moveCells=0;pointerEvents=1;" parent="1" vertex="1">
                    <mxGeometry x="540" y="175" width="210" height="150" as="geometry">
                        <mxRectangle x="540" y="190" width="60" height="30" as="alternateBounds"/>
                    </mxGeometry>
                </mxCell>
                <mxCell id="Z_-6yaJLIJlQ9sG_ksaD-10" value="User (исполнитель / заказчик)" style="text;strokeColor=none;fillColor=none;align=left;verticalAlign=middle;spacingLeft=4;spacingRight=4;overflow=hidden;points=[[0,0.5],[1,0.5]];portConstraint=eastwest;rotatable=0;whiteSpace=wrap;html=1;" parent="Z_-6yaJLIJlQ9sG_ksaD-9" vertex="1">
                    <mxGeometry y="30" width="210" height="30" as="geometry"/>
                </mxCell>
                <mxCell id="Z_-6yaJLIJlQ9sG_ksaD-11" value="Authentication&amp;nbsp;" style="text;strokeColor=none;fillColor=none;align=left;verticalAlign=middle;spacingLeft=4;spacingRight=4;overflow=hidden;points=[[0,0.5],[1,0.5]];portConstraint=eastwest;rotatable=0;whiteSpace=wrap;html=1;" parent="Z_-6yaJLIJlQ9sG_ksaD-9" vertex="1">
                    <mxGeometry y="60" width="210" height="30" as="geometry"/>
                </mxCell>
                <mxCell id="Z_-6yaJLIJlQ9sG_ksaD-12" value="Refresh Token" style="text;strokeColor=none;fillColor=none;align=left;verticalAlign=middle;spacingLeft=4;spacingRight=4;overflow=hidden;points=[[0,0.5],[1,0.5]];portConstraint=eastwest;rotatable=0;whiteSpace=wrap;html=1;" parent="Z_-6yaJLIJlQ9sG_ksaD-9" vertex="1">
                    <mxGeometry y="90" width="210" height="30" as="geometry"/>
                </mxCell>
                <mxCell id="KhKdxgmT8Jcne5T-ARf2-11" value="Расчёт рейтинга пользователя" style="text;strokeColor=none;fillColor=none;align=left;verticalAlign=middle;spacingLeft=4;spacingRight=4;overflow=hidden;points=[[0,0.5],[1,0.5]];portConstraint=eastwest;rotatable=0;whiteSpace=wrap;html=1;" parent="Z_-6yaJLIJlQ9sG_ksaD-9" vertex="1">
                    <mxGeometry y="120" width="210" height="30" as="geometry"/>
                </mxCell>
                <mxCell id="Z_-6yaJLIJlQ9sG_ksaD-13" value="Task" style="swimlane;fontStyle=0;childLayout=stackLayout;horizontal=1;startSize=30;horizontalStack=0;resizeParent=1;resizeParentMax=0;resizeLast=0;collapsible=1;marginBottom=0;whiteSpace=wrap;html=1;" parent="1" vertex="1">
                    <mxGeometry x="540" y="420" width="210" height="120" as="geometry">
                        <mxRectangle x="540" y="395" width="60" height="30" as="alternateBounds"/>
                    </mxGeometry>
                </mxCell>
                <mxCell id="Z_-6yaJLIJlQ9sG_ksaD-14" value="Создание, редактирование, удаление заданий" style="text;strokeColor=none;fillColor=none;align=left;verticalAlign=middle;spacingLeft=4;spacingRight=4;overflow=hidden;points=[[0,0.5],[1,0.5]];portConstraint=eastwest;rotatable=0;whiteSpace=wrap;html=1;" parent="Z_-6yaJLIJlQ9sG_ksaD-13" vertex="1">
                    <mxGeometry y="30" width="210" height="30" as="geometry"/>
                </mxCell>
                <mxCell id="Z_-6yaJLIJlQ9sG_ksaD-15" value="Фильтрация заданий" style="text;strokeColor=none;fillColor=none;align=left;verticalAlign=middle;spacingLeft=4;spacingRight=4;overflow=hidden;points=[[0,0.5],[1,0.5]];portConstraint=eastwest;rotatable=0;whiteSpace=wrap;html=1;" parent="Z_-6yaJLIJlQ9sG_ksaD-13" vertex="1">
                    <mxGeometry y="60" width="210" height="30" as="geometry"/>
                </mxCell>
                <mxCell id="Z_-6yaJLIJlQ9sG_ksaD-16" value="Отзывы" style="text;strokeColor=none;fillColor=none;align=left;verticalAlign=middle;spacingLeft=4;spacingRight=4;overflow=hidden;points=[[0,0.5],[1,0.5]];portConstraint=eastwest;rotatable=0;whiteSpace=wrap;html=1;" parent="Z_-6yaJLIJlQ9sG_ksaD-13" vertex="1">
                    <mxGeometry y="90" width="210" height="30" as="geometry"/>
                </mxCell>
                <mxCell id="Z_-6yaJLIJlQ9sG_ksaD-17" value="Notify" style="swimlane;fontStyle=0;childLayout=stackLayout;horizontal=1;startSize=30;horizontalStack=0;resizeParent=1;resizeParentMax=0;resizeLast=0;collapsible=1;marginBottom=0;whiteSpace=wrap;html=1;" parent="1" vertex="1">
                    <mxGeometry x="540" y="672.5" width="210" height="90" as="geometry">
                        <mxRectangle x="620" y="420" width="60" height="30" as="alternateBounds"/>
                    </mxGeometry>
                </mxCell>
                <mxCell id="Z_-6yaJLIJlQ9sG_ksaD-18" value="Subscriber" style="text;strokeColor=none;fillColor=none;align=left;verticalAlign=middle;spacingLeft=4;spacingRight=4;overflow=hidden;points=[[0,0.5],[1,0.5]];portConstraint=eastwest;rotatable=0;whiteSpace=wrap;html=1;" parent="Z_-6yaJLIJlQ9sG_ksaD-17" vertex="1">
                    <mxGeometry y="30" width="210" height="30" as="geometry"/>
                </mxCell>
                <mxCell id="Z_-6yaJLIJlQ9sG_ksaD-19" value="Mail" style="text;strokeColor=none;fillColor=none;align=left;verticalAlign=middle;spacingLeft=4;spacingRight=4;overflow=hidden;points=[[0,0.5],[1,0.5]];portConstraint=eastwest;rotatable=0;whiteSpace=wrap;html=1;" parent="Z_-6yaJLIJlQ9sG_ksaD-17" vertex="1">
                    <mxGeometry y="60" width="210" height="30" as="geometry"/>
                </mxCell>
                <mxCell id="Z_-6yaJLIJlQ9sG_ksaD-26" value="MongoDB" style="shape=datastore;whiteSpace=wrap;html=1;" parent="1" vertex="1">
                    <mxGeometry x="900" y="190" width="60" height="90" as="geometry"/>
                </mxCell>
                <mxCell id="Z_-6yaJLIJlQ9sG_ksaD-27" value="PostgreSQL" style="shape=datastore;whiteSpace=wrap;fillColor=default;html=1;labelPosition=center;verticalLabelPosition=bottom;align=center;verticalAlign=top;" parent="1" vertex="1">
                    <mxGeometry x="900" y="425" width="60" height="90" as="geometry"/>
                </mxCell>
                <mxCell id="Z_-6yaJLIJlQ9sG_ksaD-28" value="RabbitMQ" style="html=1;whiteSpace=wrap;aspect=fixed;shape=isoRectangle;rotation=0;" parent="1" vertex="1">
                    <mxGeometry x="867.5" y="680" width="125" height="75" as="geometry"/>
                </mxCell>
                <mxCell id="Z_-6yaJLIJlQ9sG_ksaD-34" value="" style="endArrow=open;endFill=1;endSize=12;html=1;rounded=0;entryX=0;entryY=0.444;entryDx=0;entryDy=0;exitX=1;exitY=0.5;exitDx=0;exitDy=0;entryPerimeter=0;" parent="1" source="Z_-6yaJLIJlQ9sG_ksaD-14" target="Z_-6yaJLIJlQ9sG_ksaD-27" edge="1">
                    <mxGeometry width="160" relative="1" as="geometry">
                        <mxPoint x="750" y="465" as="sourcePoint"/>
                        <mxPoint x="850" y="465" as="targetPoint"/>
                    </mxGeometry>
                </mxCell>
                <mxCell id="Z_-6yaJLIJlQ9sG_ksaD-35" value="" style="endArrow=open;endFill=1;endSize=12;html=1;rounded=0;entryX=1;entryY=0.5;entryDx=0;entryDy=0;exitX=-0.067;exitY=0.778;exitDx=0;exitDy=0;exitPerimeter=0;" parent="1" source="Z_-6yaJLIJlQ9sG_ksaD-27" target="Z_-6yaJLIJlQ9sG_ksaD-15" edge="1">
                    <mxGeometry width="160" relative="1" as="geometry">
                        <mxPoint x="750" y="495" as="sourcePoint"/>
                        <mxPoint x="910" y="495" as="targetPoint"/>
                    </mxGeometry>
                </mxCell>
                <mxCell id="Z_-6yaJLIJlQ9sG_ksaD-38" value="" style="endArrow=open;endFill=1;endSize=12;html=1;rounded=0;entryX=0;entryY=0.444;entryDx=0;entryDy=0;exitX=1;exitY=0.5;exitDx=0;exitDy=0;entryPerimeter=0;" parent="1" edge="1">
                    <mxGeometry width="160" relative="1" as="geometry">
                        <mxPoint x="750" y="230" as="sourcePoint"/>
                        <mxPoint x="900" y="230" as="targetPoint"/>
                    </mxGeometry>
                </mxCell>
                <mxCell id="Z_-6yaJLIJlQ9sG_ksaD-39" value="" style="endArrow=open;endFill=1;endSize=12;html=1;rounded=0;entryX=1;entryY=0.5;entryDx=0;entryDy=0;exitX=-0.067;exitY=0.778;exitDx=0;exitDy=0;exitPerimeter=0;" parent="1" edge="1">
                    <mxGeometry width="160" relative="1" as="geometry">
                        <mxPoint x="896" y="260" as="sourcePoint"/>
                        <mxPoint x="750" y="260" as="targetPoint"/>
                    </mxGeometry>
                </mxCell>
                <mxCell id="Z_-6yaJLIJlQ9sG_ksaD-40" value="" style="endArrow=open;endFill=1;endSize=12;html=1;rounded=0;exitX=1;exitY=0.5;exitDx=0;exitDy=0;" parent="1" edge="1">
                    <mxGeometry width="160" relative="1" as="geometry">
                        <mxPoint x="755" y="704.5" as="sourcePoint"/>
                        <mxPoint x="870" y="705" as="targetPoint"/>
                    </mxGeometry>
                </mxCell>
                <mxCell id="Z_-6yaJLIJlQ9sG_ksaD-41" value="" style="endArrow=open;endFill=1;endSize=12;html=1;rounded=0;entryX=1;entryY=0.5;entryDx=0;entryDy=0;" parent="1" edge="1">
                    <mxGeometry width="160" relative="1" as="geometry">
                        <mxPoint x="870" y="735" as="sourcePoint"/>
                        <mxPoint x="755" y="734.5" as="targetPoint"/>
                    </mxGeometry>
                </mxCell>
                <mxCell id="Z_-6yaJLIJlQ9sG_ksaD-76" style="edgeStyle=orthogonalEdgeStyle;rounded=0;orthogonalLoop=1;jettySize=auto;html=1;exitX=1;exitY=0.5;exitDx=0;exitDy=0;entryX=1;entryY=0.75;entryDx=0;entryDy=0;curved=1;" parent="1" source="Z_-6yaJLIJlQ9sG_ksaD-50" target="Z_-6yaJLIJlQ9sG_ksaD-52" edge="1">
                    <mxGeometry relative="1" as="geometry">
                        <Array as="points">
                            <mxPoint x="1070" y="250"/>
                            <mxPoint x="1070" y="768"/>
                        </Array>
                    </mxGeometry>
                </mxCell>
                <mxCell id="Z_-6yaJLIJlQ9sG_ksaD-75" style="edgeStyle=orthogonalEdgeStyle;rounded=0;orthogonalLoop=1;jettySize=auto;html=1;exitX=1;exitY=0.75;exitDx=0;exitDy=0;entryX=1.002;entryY=0.403;entryDx=0;entryDy=0;entryPerimeter=0;curved=1;" parent="1" source="Z_-6yaJLIJlQ9sG_ksaD-51" target="Z_-6yaJLIJlQ9sG_ksaD-52" edge="1">
                    <mxGeometry relative="1" as="geometry"/>
                </mxCell>
                <mxCell id="Z_-6yaJLIJlQ9sG_ksaD-58" value="" style="edgeStyle=orthogonalEdgeStyle;rounded=0;orthogonalLoop=1;jettySize=auto;html=1;" parent="1" source="Z_-6yaJLIJlQ9sG_ksaD-53" target="Z_-6yaJLIJlQ9sG_ksaD-51" edge="1">
                    <mxGeometry relative="1" as="geometry"/>
                </mxCell>
                <mxCell id="Z_-6yaJLIJlQ9sG_ksaD-61" style="edgeStyle=orthogonalEdgeStyle;rounded=0;orthogonalLoop=1;jettySize=auto;html=1;exitX=0.75;exitY=1;exitDx=0;exitDy=0;entryX=0;entryY=0.5;entryDx=0;entryDy=0;" parent="1" source="Z_-6yaJLIJlQ9sG_ksaD-53" target="Z_-6yaJLIJlQ9sG_ksaD-52" edge="1">
                    <mxGeometry relative="1" as="geometry">
                        <Array as="points">
                            <mxPoint x="350" y="718"/>
                        </Array>
                    </mxGeometry>
                </mxCell>
                <mxCell id="Z_-6yaJLIJlQ9sG_ksaD-62" style="edgeStyle=orthogonalEdgeStyle;rounded=0;orthogonalLoop=1;jettySize=auto;html=1;exitX=0.5;exitY=0;exitDx=0;exitDy=0;entryX=0;entryY=0.5;entryDx=0;entryDy=0;" parent="1" source="Z_-6yaJLIJlQ9sG_ksaD-53" target="Z_-6yaJLIJlQ9sG_ksaD-50" edge="1">
                    <mxGeometry relative="1" as="geometry"/>
                </mxCell>
                <mxCell id="KhKdxgmT8Jcne5T-ARf2-8" style="edgeStyle=orthogonalEdgeStyle;rounded=0;orthogonalLoop=1;jettySize=auto;html=1;entryX=-0.002;entryY=0.577;entryDx=0;entryDy=0;entryPerimeter=0;" parent="1" source="Z_-6yaJLIJlQ9sG_ksaD-53" target="KhKdxgmT8Jcne5T-ARf2-4" edge="1">
                    <mxGeometry relative="1" as="geometry">
                        <Array as="points">
                            <mxPoint x="300" y="935"/>
                        </Array>
                    </mxGeometry>
                </mxCell>
                <mxCell id="Z_-6yaJLIJlQ9sG_ksaD-53" value="APP Gateway" style="rounded=1;whiteSpace=wrap;html=1;fillColor=none;dashed=1;dashPattern=12 12;" parent="1" vertex="1">
                    <mxGeometry x="200" y="385" width="200" height="190" as="geometry"/>
                </mxCell>
                <mxCell id="KhKdxgmT8Jcne5T-ARf2-1" value="ImageLoad" style="swimlane;fontStyle=0;childLayout=stackLayout;horizontal=1;startSize=30;horizontalStack=0;resizeParent=1;resizeParentMax=0;resizeLast=0;collapsible=1;marginBottom=0;whiteSpace=wrap;html=1;" parent="1" vertex="1">
                    <mxGeometry x="540" y="880" width="210" height="60" as="geometry">
                        <mxRectangle x="620" y="420" width="60" height="30" as="alternateBounds"/>
                    </mxGeometry>
                </mxCell>
                <mxCell id="KhKdxgmT8Jcne5T-ARf2-2" value="Загрузка изображений для заданий" style="text;strokeColor=none;fillColor=none;align=left;verticalAlign=middle;spacingLeft=4;spacingRight=4;overflow=hidden;points=[[0,0.5],[1,0.5]];portConstraint=eastwest;rotatable=0;whiteSpace=wrap;html=1;" parent="KhKdxgmT8Jcne5T-ARf2-1" vertex="1">
                    <mxGeometry y="30" width="210" height="30" as="geometry"/>
                </mxCell>
                <mxCell id="KhKdxgmT8Jcne5T-ARf2-5" style="edgeStyle=orthogonalEdgeStyle;rounded=0;orthogonalLoop=1;jettySize=auto;html=1;exitX=1;exitY=0.5;exitDx=0;exitDy=0;entryX=1;entryY=0.5;entryDx=0;entryDy=0;curved=1;" parent="1" source="KhKdxgmT8Jcne5T-ARf2-4" target="Z_-6yaJLIJlQ9sG_ksaD-51" edge="1">
                    <mxGeometry relative="1" as="geometry">
                        <Array as="points">
                            <mxPoint x="1010" y="940"/>
                            <mxPoint x="1090" y="940"/>
                            <mxPoint x="1090" y="480"/>
                        </Array>
                    </mxGeometry>
                </mxCell>
                <mxCell id="KhKdxgmT8Jcne5T-ARf2-6" value="Внешнее&lt;br&gt;&amp;nbsp;хранилище" style="html=1;whiteSpace=wrap;aspect=fixed;shape=isoRectangle;rotation=0;" parent="1" vertex="1">
                    <mxGeometry x="877.5" y="872.5" width="125" height="75" as="geometry"/>
                </mxCell>
                <mxCell id="KhKdxgmT8Jcne5T-ARf2-7" value="" style="endArrow=open;endFill=1;endSize=12;html=1;rounded=0;entryX=1;entryY=0.5;entryDx=0;entryDy=0;" parent="1" edge="1">
                    <mxGeometry width="160" relative="1" as="geometry">
                        <mxPoint x="877.5" y="910" as="sourcePoint"/>
                        <mxPoint x="762.5" y="909.5" as="targetPoint"/>
                    </mxGeometry>
                </mxCell>
                <mxCell id="KhKdxgmT8Jcne5T-ARf2-13" value="&lt;b&gt;&lt;font style=&quot;font-size: 17px;&quot;&gt;Микросервисная архитектура&amp;nbsp;TaskForce&lt;/font&gt;&lt;/b&gt;" style="text;html=1;strokeColor=none;fillColor=none;align=center;verticalAlign=middle;whiteSpace=wrap;rounded=0;" parent="1" vertex="1">
                    <mxGeometry x="190" y="80" width="490" height="30" as="geometry"/>
                </mxCell>
            </root>
        </mxGraphModel>
    </diagram>
</mxfile>
